<?xml version="1.0" standalone="no"?>
<!DOCTYPE svg PUBLIC "-//W3C//DTD SVG 20010904//EN"
 "http://www.w3.org/TR/2001/REC-SVG-20010904/DTD/svg10.dtd">
<svg version="1.0" xmlns="http://www.w3.org/2000/svg"
 width="512.000000pt" height="512.000000pt" viewBox="0 0 512.000000 512.000000"
 preserveAspectRatio="xMidYMid meet">

<g transform="translate(0.000000,512.000000) scale(0.100000,-0.100000)"
fill="#FBFBFB" stroke="none">
<path d="M1508 4869 c-399 -21 -775 -110 -1064 -253 -210 -104 -345 -218 -410
-346 -40 -78 -39 -172 0 -251 113 -228 508 -441 994 -539 869 -174 1885 15
2270 423 193 205 134 421 -171 624 -364 243 -989 375 -1619 342z"/>
<path d="M1 3234 c4 -122 6 -133 36 -194 61 -123 195 -236 408 -341 327 -162
697 -243 1171 -256 l230 -6 61 124 c59 120 148 264 212 343 17 22 30 41 27 43
-2 2 -52 -1 -112 -7 -139 -13 -515 -13 -664 0 -531 47 -963 176 -1334 400
l-38 23 3 -129z"/>
<path d="M3460 3155 c-157 -24 -262 -54 -393 -112 -491 -218 -827 -693 -866
-1225 -44 -604 277 -1162 821 -1426 310 -150 692 -187 1014 -97 428 120 773
414 951 810 95 210 127 367 127 610 -1 189 -19 304 -76 470 -136 398 -459 732
-853 884 -233 89 -495 121 -725 86z"/>
<path d="M2 2257 c4 -118 7 -138 31 -187 61 -127 201 -243 422 -350 317 -155
656 -231 1140 -255 l120 -6 0 246 0 245 -70 0 c-38 0 -131 4 -205 10 -545 40
-1011 170 -1359 379 l-83 50 4 -132z"/>
<path d="M1 1284 c4 -122 6 -133 36 -195 111 -224 499 -434 983 -532 209 -43
354 -58 600 -64 208 -5 473 7 488 22 3 2 -13 28 -35 57 -58 77 -146 228 -188
323 l-37 82 -256 6 c-621 13 -1116 143 -1556 407 l-38 23 3 -129z"/>
</g>
</svg>
