<?xml version="1.0" standalone="no"?>
<!DOCTYPE svg PUBLIC "-//W3C//DTD SVG 20010904//EN"
 "http://www.w3.org/TR/2001/REC-SVG-20010904/DTD/svg10.dtd">
<svg version="1.0" xmlns="http://www.w3.org/2000/svg"
 width="512.000000pt" height="512.000000pt" viewBox="0 0 512.000000 512.000000"
 preserveAspectRatio="xMidYMid meet">

<g transform="translate(0.000000,512.000000) scale(0.100000,-0.100000)"
fill="#FBFBFB" stroke="none">
<path d="M2375 5113 c-313 -28 -585 -103 -860 -238 -699 -341 -1177 -982
-1317 -1762 -20 -112 -22 -161 -22 -388 0 -224 3 -277 22 -385 69 -386 216
-733 437 -1029 102 -136 231 -279 335 -368 l89 -76 3 -381 3 -381 24 -34 c44
-62 81 -71 303 -71 204 0 235 5 276 43 52 48 56 67 62 302 5 210 6 221 28 253
76 106 245 82 291 -41 7 -17 11 -111 11 -226 0 -184 1 -200 23 -241 25 -50 88
-90 142 -90 41 0 114 38 139 73 19 26 21 47 26 250 6 241 10 262 66 306 63 50
145 50 208 0 56 -44 60 -65 66 -304 5 -212 6 -221 29 -254 27 -37 90 -70 136
-71 54 0 117 40 143 90 21 41 22 57 22 240 0 168 3 201 19 236 43 95 149 129
238 74 64 -39 67 -51 73 -295 6 -235 10 -254 62 -302 41 -38 72 -43 276 -43
222 0 259 9 303 71 l24 34 3 381 3 381 84 72 c392 334 682 855 775 1396 27
154 37 466 21 626 -75 723 -455 1354 -1061 1760 -202 136 -500 267 -745 329
-226 56 -542 83 -760 63z m-703 -1909 c210 -54 396 -228 465 -438 23 -70 27
-97 27 -206 0 -109 -4 -136 -27 -206 -70 -210 -251 -381 -467 -440 -102 -28
-263 -24 -365 10 -256 83 -435 300 -463 561 -33 310 144 596 435 702 125 45
264 51 395 17z m2146 -9 c251 -80 432 -300 460 -560 35 -321 -154 -611 -463
-711 -102 -34 -263 -38 -365 -10 -216 59 -397 230 -467 440 -23 70 -27 97 -27
206 0 109 4 136 27 206 80 240 292 416 552 457 63 11 207 -4 283 -28z m-1167
-1334 c66 -43 375 -360 394 -403 47 -113 -30 -230 -150 -230 -63 0 -98 23
-222 145 l-113 111 -112 -111 c-125 -122 -160 -145 -223 -145 -120 0 -197 117
-150 230 19 43 328 360 394 403 33 21 57 29 91 29 34 0 58 -8 91 -29z"/>
</g>
</svg>
